# xmcd
#
# Track frame offsets: 
#        150
#        15129
#        35993
#        50016
#        73847
#        87648
#        100757
#        122398
#        137351
#        152631
#        162082
#        173088
#        189085
#        215555
#        237233
#        258598
#
# Disc length: 3794 seconds
#
# Revision: 0
# Processed by: cddbd v1.5.1PL0 Copyright (c) Steve Scherf et al.
# Submitted via: ExactAudioCopy v0.95a5
#
DISCID=d10ed010
DTITLE=爱和乐 - 美乐之一
DYEAR=1900
DGENRE=Classical
TTITLE0=幽默曲
TTITLE1=小夜曲
TTITLE2=梦幻曲
TTITLE3=太伊思冥想曲
TTITLE4=最缓板
TTITLE5=圣母颂
TTITLE6=圣母颂
TTITLE7=小夜曲
TTITLE8=美丽的梦仙
TTITLE9=桑辛故人
TTITLE10=摇篮曲
TTITLE11=天鹅
TTITLE12=G大调第13号小夜曲第二乐章（行板）
TTITLE13=那会响遍他拉大堂的竖琴
TTITLE14=常常在静夜里
TTITLE15=在修道院的花园里
EXTD=
EXTT0=
EXTT1=
EXTT2=
EXTT3=
EXTT4=
EXTT5=
EXTT6=
EXTT7=
EXTT8=
EXTT9=
EXTT10=
EXTT11=
EXTT12=
EXTT13=
EXTT14=
EXTT15=
PLAYORDER=
